# xmcd CD database file
# 
# Track frame offsets:
# 	150
# 	11707
# 	21014
# 	29323
# 	40505
# 	53239
# 	64578
# 	78880
# 	91164
# 	100343
# 
# Disc length: 1496 seconds
# 
# Submitted via: Nero 5.5.3.5
# 
# Revision: 0
# Processed by: cddbd v1.4PL0 Copyright (c) Steve Scherf et al.
#
DISCID=6a05d60a
DTITLE=Roger Miller - Dear Folks Sorry I Haven't Written Lately
DYEAR=1900
DGENRE=
TTITLE0=Open Up Your Heart
TTITLE1=Whistle Stop
TTITLE2=Mama Used To Love Me But She Died
TTITLE3=Qua La Tinta
TTITLE4=I Believe In The Sunshine
TTITLE5=The Animal Of Man
TTITLE6=What Would My Mama Say
TTITLE7=The Day I Jumped From Uncle Harvey's Plane
TTITLE8=Shannon's Song
TTITLE9=The 4th Of July
EXTD=
EXTT0=
EXTT1=
EXTT2=
EXTT3=
EXTT4=
EXTT5=
EXTT6=
EXTT7=
EXTT8=
EXTT9=
PLAYORDER=
